<svg width="29" height="24" viewBox="0 0 29 24" fill="none" xmlns="http://www.w3.org/2000/svg">
    <path d="M5 17.7398C2.23858 17.7398 1.09863e-06 15.5012 1.21934e-06 12.7398L1.28402e-06 11.2602C1.40472e-06 8.49878 2.23858 6.2602 5 6.2602L12.9137 6.2602C14.4285 6.2602 15.6566 5.03218 15.6566 3.51733C15.6566 1.08863 18.5802 -0.14181 20.3169 1.556L27.3428 8.42468C29.3491 10.386 29.3491 13.614 27.3428 15.5753L20.3169 22.444C18.5802 24.1418 15.6566 22.9114 15.6566 20.4827C15.6566 18.9678 14.4285 17.7398 12.9137 17.7398L5 17.7398Z" fill="white"/>
</svg>